<svg width="25" height="24" viewBox="0 0 25 24" fill="none" xmlns="http://www.w3.org/2000/svg">
<rect width="24" height="24" transform="translate(0.0236816)" fill="white"/>
<path d="M9.69085 3.15314C10.0659 3.45399 10.0823 4.01717 9.7647 4.37815C9.46321 4.7208 8.93965 4.78904 8.59062 4.49496L8.28239 4.23526C8.10207 4.08333 7.87385 4 7.63805 4H4.01782C3.46554 4 3.01782 4.44772 3.01782 5V19C3.01782 19.5523 3.46554 20 4.01782 20H20.0139C20.5662 20 21.0139 19.5523 21.0139 19V17.3699C21.0139 17.1135 21.1409 16.8749 21.3434 16.7178C21.9456 16.2505 23.0237 16.6441 23.0237 17.4064V21C23.0237 21.5523 22.576 22 22.0237 22H2.02368C1.4714 22 1.02368 21.5523 1.02368 21V3C1.02368 2.44772 1.4714 2 2.02368 2H7.90168C8.12919 2 8.34989 2.07758 8.52737 2.21993L9.69085 3.15314Z" fill="#4A4A4A"/>
<path d="M17.0237 5.06543C17.8083 5.20559 18.5297 5.52776 19.1418 5.98828L20.6145 4.51758L22.0286 5.93164L20.47 7.48926C20.7348 7.94755 20.9297 8.45107 21.0383 8.98633H23.0237V10.9863H21.0383C20.9023 11.6557 20.6324 12.2762 20.2581 12.8193L21.7581 14.3193L20.344 15.7334L18.8167 14.207C18.2804 14.5479 17.6755 14.7889 17.0266 14.9053V17H15.0266V14.8604C14.2913 14.6932 13.6177 14.3648 13.0452 13.9131L11.4377 15.5215L10.0237 14.1074L11.7493 12.3809C11.514 11.9505 11.3401 11.4817 11.2395 10.9863H9.02856V8.98633H11.2395C11.3634 8.37614 11.5981 7.80629 11.9221 7.29883L10.2913 5.66797L11.7053 4.25391L13.3127 5.86133C13.8228 5.51114 14.4012 5.25418 15.0237 5.1123V3H17.0237V5.06543ZM16.1389 6.98633C14.4821 6.98643 13.1389 8.32954 13.1389 9.98633C13.1391 11.643 14.4822 12.9862 16.1389 12.9863C17.7957 12.9863 19.1388 11.6431 19.1389 9.98633C19.1389 8.32947 17.7958 6.98633 16.1389 6.98633Z" fill="#158AC1"/>
</svg>
