<svg width="25" height="24" viewBox="0 0 25 24" fill="none" xmlns="http://www.w3.org/2000/svg">
<rect width="24" height="24" transform="translate(0.0236816)" fill="white"/>
<path d="M23.0237 17.0002C23.0237 17.5525 22.576 18.0002 22.0237 18.0002H2.02368C1.4714 18.0002 1.02368 17.5525 1.02368 17.0002V3.00024C1.02368 2.44796 1.4714 2.00024 2.02368 2.00024H22.0237C22.576 2.00024 23.0237 2.44796 23.0237 3.00024V17.0002ZM4.02661 4.00024C3.47433 4.00024 3.02661 4.44796 3.02661 5.00024V15.0002C3.02661 15.5525 3.47433 16.0002 4.02661 16.0002H20.0237C20.576 16.0002 21.0237 15.5525 21.0237 15.0002V5.00024C21.0237 4.44796 20.576 4.00024 20.0237 4.00024H4.02661Z" fill="#158AC1"/>
<path d="M19.0237 20C19.5758 20.0002 20.0237 20.4478 20.0237 21C20.0237 21.5521 19.5758 21.9998 19.0237 22H5.02368C4.47143 22 4.0237 21.5522 4.02368 21C4.02368 20.4477 4.47142 20 5.02368 20H11.0217V18H13.0256V20H19.0237Z" fill="#4A4A4A"/>
</svg>
