<svg width="25" height="24" viewBox="0 0 25 24" fill="none" xmlns="http://www.w3.org/2000/svg">
<rect width="24" height="24" transform="translate(0.0236816)" fill="white"/>
<path d="M11.8261 4.86504C11.954 4.96756 12.113 5.02344 12.2769 5.02344C12.7534 5.02344 13.0977 5.47989 13.0506 5.95406C13.0328 6.13334 13.0237 6.31514 13.0237 6.49902C13.0237 6.7741 12.8107 7.01074 12.5356 7.01074H11.9397C11.7038 7.01074 11.4755 6.92735 11.2952 6.7753L8.28245 4.23544C8.10209 4.08339 7.87379 4 7.6379 4H4.01782C3.46554 4 3.01782 4.44772 3.01782 5V19C3.01782 19.5523 3.46554 20 4.01782 20H10.4861C10.4966 20 10.5051 20.0085 10.5051 20.019C10.5051 20.0296 10.5137 20.0381 10.5242 20.0381H22.0427C22.5845 20.0381 23.0237 20.4773 23.0237 21.019C23.0237 21.5608 22.5845 22 22.0427 22H2.02368C1.4714 22 1.02368 21.5523 1.02368 21V3C1.02368 2.44772 1.4714 2 2.02368 2H7.90175C8.12922 2 8.34988 2.07755 8.52734 2.21984L11.8261 4.86504Z" fill="#4A4A4A"/>
<path d="M20.0237 13C21.6805 13 23.0237 14.3431 23.0237 16C23.0237 17.6569 21.6805 19 20.0237 19H7.02368C5.36683 19 4.02368 17.6569 4.02368 16C4.02368 14.3431 5.36683 13 7.02368 13H20.0237ZM8.02368 14C6.91911 14 6.02368 14.8954 6.02368 16C6.02368 17.1046 6.91911 18 8.02368 18H19.0237C20.1283 18 21.0237 17.1046 21.0237 16C21.0237 14.8954 20.1283 14 19.0237 14H8.02368ZM18.0237 15C18.576 15 19.0237 15.4477 19.0237 16C19.0237 16.5523 18.576 17 18.0237 17C17.4714 17 17.0237 16.5523 17.0237 16C17.0237 15.4477 17.4714 15 18.0237 15Z" fill="#158AC1"/>
<path d="M16.0276 7.00293C16.0944 8.52739 16.6597 9.98055 17.7727 10.8262L17.9729 10.9648C15.9122 10.7133 14.283 9.07026 14.053 7.00293H16.0276ZM22.9944 7.00293C22.7644 9.06993 21.1357 10.7129 19.0754 10.9648C20.3475 10.1482 20.9915 8.61663 21.0637 7.00293H22.9944ZM20.0471 7.00293C19.9691 8.32605 19.4601 9.59186 18.5295 10.5449C17.6186 9.59066 17.1205 8.32543 17.0442 7.00293H20.0471ZM19.0637 2.0332C21.1306 2.28046 22.7662 3.92764 22.9954 6H21.0354C20.8802 4.44107 20.2066 2.93049 19.0637 2.0332ZM17.9836 2.0332C16.8659 2.9323 16.2069 4.44233 16.0549 6H14.052C14.2811 3.92764 15.9168 2.28046 17.9836 2.0332ZM18.5295 2.52637C19.4006 3.54257 19.8968 4.76781 20.0247 6H17.0667C17.192 4.76861 17.677 3.54382 18.5295 2.52637Z" fill="#158AC1"/>
</svg>
