<svg width="25" height="24" viewBox="0 0 25 24" fill="none" xmlns="http://www.w3.org/2000/svg">
<rect width="24" height="24" transform="translate(0.0236816)" fill="white"/>
<path d="M11.7495 4.8036C11.927 4.94589 12.1476 5.02344 12.3751 5.02344H22.0237C22.576 5.02344 23.0237 5.47115 23.0237 6.02344V7.00391C23.0237 7.55619 22.576 8.00391 22.0237 8.00391H21.5105C21.2362 8.00391 21.0139 7.78158 21.0139 7.50732C21.0139 7.23307 20.7916 7.01074 20.5173 7.01074H11.9397C11.7038 7.01074 11.4755 6.92735 11.2952 6.7753L8.28245 4.23544C8.10209 4.08339 7.87379 4 7.6379 4H4.01782C3.46554 4 3.01782 4.44772 3.01782 5V19.5488C3.01782 19.798 3.21982 20 3.46899 20H3.91675C3.91864 20 3.92017 20.0015 3.92017 20.0034C3.92017 20.0053 3.9217 20.0068 3.92358 20.0068H16.0271C16.5775 20.0068 17.0237 20.453 17.0237 21.0034C17.0237 21.5538 16.5775 22 16.0271 22H2.02368C1.4714 22 1.02368 21.5523 1.02368 21V3C1.02368 2.44772 1.4714 2 2.02368 2H7.90175C8.12922 2 8.34988 2.07755 8.52734 2.21984L11.7495 4.8036ZM22.0237 20.0068C22.5741 20.0068 23.0237 20.453 23.0237 21.0034C23.0237 21.5538 22.5741 22 22.0237 22C21.4733 22 21.0237 21.5538 21.0237 21.0034C21.0237 20.453 21.4733 20.0068 22.0237 20.0068Z" fill="#4A4A4A"/>
<path d="M11.5237 12.0724V8.77676C11.5237 8.59043 11.6568 8.5 11.8861 8.5H12.6328C12.862 8.5 12.8874 8.60173 12.8874 8.78807V12.0359C12.8874 13.1662 13.1364 13.8831 14.2479 13.8831C15.3998 13.8831 15.596 13.1625 15.596 12.0359V8.78898C15.596 8.60264 15.6359 8.50091 15.8651 8.50091H16.6118C16.841 8.50091 16.9557 8.59408 16.9557 8.78042V12.0751C16.9557 13.2609 16.7133 14.0927 16.2286 14.5704C15.7439 15.0447 15.084 15.2818 14.2489 15.2818C13.4138 15.2818 12.7539 15.0447 12.2693 14.5704C11.7846 14.0927 11.5237 13.2582 11.5237 12.0724Z" fill="#4A4A4A"/>
<path d="M4.02368 11.7289C4.02368 10.5869 4.31668 9.67989 4.90269 9.00793C5.48869 8.33598 6.3249 8 7.41131 8C8.49772 8 9.33393 8.33598 9.91993 9.00793C10.5059 9.67989 10.7989 10.5869 10.7989 11.7289C10.7989 12.8709 10.5059 13.7778 9.91993 14.4498C9.33393 15.1217 8.49772 15.4577 7.41131 15.4577C6.3249 15.4577 5.48869 15.1217 4.90269 14.4498C4.31668 13.7778 4.02368 12.8709 4.02368 11.7289ZM5.37823 11.7289C5.37823 13.0341 6.05445 14.1699 7.41131 14.1699C8.76015 14.1699 9.45257 13.0299 9.45257 11.7289C9.45257 10.3565 8.77022 9.38332 7.41131 9.38332C6.04456 9.38332 5.37823 10.3524 5.37823 11.7289Z" fill="#4A4A4A"/>
<path d="M19.0297 13.9978C19.5819 13.9978 20.0297 14.4455 20.0297 14.9978V16.9978H22.0297C22.5819 16.9978 23.0297 17.4455 23.0297 17.9978C23.0297 18.5501 22.5819 18.9978 22.0297 18.9978H20.0297V20.9978C20.0297 21.5501 19.5819 21.9978 19.0297 21.9978C18.4774 21.9978 18.0297 21.5501 18.0297 20.9978V18.9978H16.0297C15.4774 18.9978 15.0297 18.5501 15.0297 17.9978C15.0297 17.4455 15.4774 16.9978 16.0297 16.9978H18.0297V14.9978C18.0297 14.4455 18.4774 13.9978 19.0297 13.9978Z" fill="#158AC1"/>
</svg>
