<svg width="25" height="24" viewBox="0 0 25 24" fill="none" xmlns="http://www.w3.org/2000/svg">
<rect width="24" height="24" transform="translate(0.0236816)" fill="white"/>
<path d="M11.7495 4.8036C11.927 4.94589 12.1476 5.02344 12.3751 5.02344H22.0237C22.576 5.02344 23.0237 5.47115 23.0237 6.02344V7.00391C23.0237 7.55619 22.576 8.00391 22.0237 8.00391H21.5105C21.2362 8.00391 21.0139 7.78158 21.0139 7.50732C21.0139 7.23307 20.7916 7.01074 20.5173 7.01074H11.9397C11.7038 7.01074 11.4755 6.92735 11.2952 6.7753L8.28245 4.23544C8.10209 4.08339 7.87379 4 7.6379 4H4.01782C3.46554 4 3.01782 4.44772 3.01782 5V19.5488C3.01782 19.798 3.21982 20 3.46899 20H3.91675C3.91864 20 3.92017 20.0015 3.92017 20.0034C3.92017 20.0053 3.9217 20.0068 3.92358 20.0068H22.0271C22.5775 20.0068 23.0237 20.453 23.0237 21.0034C23.0237 21.5538 22.5775 22 22.0271 22H2.02368C1.4714 22 1.02368 21.5523 1.02368 21V3C1.02368 2.44772 1.4714 2 2.02368 2H7.90175C8.12922 2 8.34988 2.07755 8.52734 2.21984L11.7495 4.8036Z" fill="#4A4A4A"/>
<path d="M15.0237 14.2651V9.40791C15.0237 9.13327 15.2199 9 15.5578 9H16.6583C16.9962 9 17.0336 9.14993 17.0336 9.42457V14.2114C17.0336 15.8773 17.4006 16.9339 19.0387 16.9339C20.7365 16.9339 21.0257 15.8718 21.0257 14.2114V9.42591C21.0257 9.15127 21.0844 9.00134 21.4223 9.00134H22.5228C22.8607 9.00134 23.0296 9.13866 23.0296 9.41329V14.2692C23.0296 16.0169 22.6724 17.2428 21.9581 17.9468C21.2437 18.6459 20.2711 18.9954 19.0403 18.9954C17.8095 18.9954 16.8369 18.6459 16.1225 17.9468C15.4082 17.2428 15.0237 16.0128 15.0237 14.2651Z" fill="#158AC1"/>
<path d="M4.03406 13.4997C4.03406 11.8166 4.4659 10.4798 5.32958 9.48945C6.19326 8.49909 7.42571 8.00391 9.02692 8.00391C10.6281 8.00391 11.8606 8.49909 12.7243 9.48945C13.5879 10.4798 14.0198 11.8166 14.0198 13.4997C14.0198 15.1828 13.5879 16.5196 12.7243 17.5099C11.8606 18.5003 10.6281 18.9955 9.02692 18.9955C7.42571 18.9955 6.19326 18.5003 5.32958 17.5099C4.4659 16.5196 4.03406 15.1828 4.03406 13.4997ZM6.03046 13.4997C6.03046 15.4235 7.0271 17.0974 9.02692 17.0974C11.0149 17.0974 12.0354 15.4172 12.0354 13.4997C12.0354 11.477 11.0297 10.0427 9.02692 10.0427C7.01253 10.0427 6.03046 11.4709 6.03046 13.4997Z" fill="#158AC1"/>
</svg>
