<svg width="25" height="24" viewBox="0 0 25 24" fill="none" xmlns="http://www.w3.org/2000/svg">
<rect width="24" height="24" transform="translate(0.0236816)" fill="white"/>
<path d="M11.7495 4.8036C11.927 4.94589 12.1476 5.02344 12.3751 5.02344H18.8399C19.1269 5.02344 19.3049 5.35941 19.2037 5.62797C19.1473 5.77771 19.0092 5.89046 18.8491 5.89024L10.5952 5.87845C10.3598 5.87811 10.132 5.79474 9.95205 5.64301L8.28245 4.23545C8.10209 4.0834 7.87379 4 7.63789 4H4.01782C3.46554 4 3.01782 4.44772 3.01782 5V19C3.01782 19.5523 3.46554 20 4.01782 20H7.34204C7.7185 20 8.02368 20.3052 8.02368 20.6816C8.02368 21.2424 7.642 22 7.08128 22H2.02368C1.4714 22 1.02368 21.5523 1.02368 21V3C1.02368 2.44772 1.4714 2 2.02368 2H7.90175C8.12922 2 8.34988 2.07755 8.52734 2.21984L11.7495 4.8036Z" fill="#4A4A4A"/>
<path d="M17.0361 18H23.0137V22H21.0781V20H17.0361V22H15.0635V20H11.0205V22H9.02051V18H15.0635V16.9668H17.0361V18Z" fill="#158AC1"/>
<path d="M23.0282 16.967H8.02332V12.0002H23.0282V16.967ZM9.02527 15.6067H10.0233V13.3606H9.02527V15.6067ZM11.0253 15.6067H12.0233V13.3606H11.0253V15.6067ZM13.0253 13.3606V15.6067H14.0233V13.3606H13.0253ZM18.0565 13.4836C17.5042 13.4836 17.0565 13.9314 17.0565 14.4836C17.0565 15.0359 17.5042 15.4836 18.0565 15.4836C18.6088 15.4836 19.0565 15.0359 19.0565 14.4836C19.0565 13.9314 18.6088 13.4836 18.0565 13.4836ZM21.0233 13.4836C20.4712 13.4838 20.0233 13.9315 20.0233 14.4836C20.0233 15.0358 20.4712 15.4834 21.0233 15.4836C21.5756 15.4836 22.0233 15.0359 22.0233 14.4836C22.0233 13.9314 21.5756 13.4836 21.0233 13.4836Z" fill="#158AC1"/>
<path d="M23.0282 10.9668H8.02332V6H23.0282V10.9668ZM9.02527 9.60645H10.0233V7.36035H9.02527V9.60645ZM11.0253 9.60645H12.0233V7.36035H11.0253V9.60645ZM13.0253 7.36035V9.60645H14.0233V7.36035H13.0253ZM18.0565 7.4834C17.5042 7.4834 17.0565 7.93112 17.0565 8.4834C17.0565 9.03568 17.5042 9.4834 18.0565 9.4834C18.6088 9.4834 19.0565 9.03569 19.0565 8.4834C19.0565 7.93111 18.6088 7.4834 18.0565 7.4834ZM21.0233 7.4834C20.4712 7.4836 20.0233 7.93124 20.0233 8.4834C20.0233 9.03556 20.4712 9.4832 21.0233 9.4834C21.5756 9.4834 22.0233 9.03569 22.0233 8.4834C22.0233 7.93111 21.5756 7.4834 21.0233 7.4834Z" fill="#158AC1"/>
</svg>
