<svg width="25" height="24" viewBox="0 0 25 24" fill="none" xmlns="http://www.w3.org/2000/svg">
<rect width="24" height="24" transform="translate(0.0236816)" fill="white"/>
<path d="M11.7495 4.8036C11.927 4.94589 12.1476 5.02344 12.3751 5.02344H17.9513C18.6055 5.02344 19.0432 5.84584 19.0432 6.5C19.0432 6.76525 18.8477 7.01074 18.5825 7.01074H11.9397C11.7038 7.01074 11.4755 6.92735 11.2952 6.7753L8.28245 4.23544C8.10209 4.08339 7.87379 4 7.6379 4H4.01782C3.46554 4 3.01782 4.44772 3.01782 5V19C3.01782 19.5523 3.46554 20 4.01782 20H20.0139C20.5662 20 21.0139 19.5523 21.0139 19V9.44026C21.0139 9.17547 21.2589 8.98047 21.5237 8.98047C22.1845 8.98047 23.0237 9.42326 23.0237 10.0841V21C23.0237 21.5523 22.576 22 22.0237 22H2.02368C1.4714 22 1.02368 21.5523 1.02368 21V3C1.02368 2.44772 1.4714 2 2.02368 2H7.90175C8.12922 2 8.34988 2.07755 8.52734 2.21984L11.7495 4.8036Z" fill="#4A4A4A"/>
<circle cx="21.5237" cy="6.5" r="1.5" fill="#4A4A4A"/>
</svg>
