<svg width="25" height="24" viewBox="0 0 25 24" fill="none" xmlns="http://www.w3.org/2000/svg">
<rect width="24" height="24" transform="translate(0.0236816)" fill="white"/>
<path d="M10.0116 3.40998C10.6549 3.92585 10.2902 4.96387 9.46553 4.96387C9.25964 4.96387 9.06039 4.89109 8.90297 4.75841L8.28243 4.23538C8.10209 4.08337 7.87381 4 7.63795 4H4.01782C3.46554 4 3.01782 4.44772 3.01782 5V19C3.01782 19.5523 3.46554 20 4.01782 20H4.89868C5.45097 20 5.89868 20.4477 5.89868 21C5.89868 21.5523 5.45097 22 4.89868 22H2.02368C1.4714 22 1.02368 21.5523 1.02368 21V3C1.02368 2.44772 1.4714 2 2.02368 2H7.90176C8.12922 2 8.34988 2.07754 8.52733 2.21984L10.0116 3.40998Z" fill="#4A4A4A"/>
<path d="M16.0237 9.98633H23.0237V21H7.02368V6H16.0237V9.98633ZM16.0237 13H18.0237V14H16.0237V16H18.0237V17H16.0237V19.0264H21.0608V12H16.0237V13ZM9.02368 19H11.0237V17H9.02368V19ZM12.0237 19H14.0237V17H12.0237V19ZM20.0237 17H19.0237V16H20.0237V17ZM9.02368 16H11.0237V14H9.02368V16ZM12.0237 16H14.0237V14H12.0237V16ZM20.0237 14H19.0237V13H20.0237V14ZM9.02368 13H11.0237V11H9.02368V13ZM12.0237 13H14.0237V11H12.0237V13ZM9.02368 10H11.0237V8H9.02368V10ZM12.0237 10H14.0237V8H12.0237V10Z" fill="#158AC1"/>
</svg>
