<svg width="17" height="16" viewBox="0 0 17 16" fill="none" xmlns="http://www.w3.org/2000/svg">
<rect width="16" height="16" transform="translate(0.0236816)" fill="white"/>
<path d="M7.72383 3.70568C7.91143 3.89364 8.16608 3.99927 8.43163 3.99927H11.2579C11.7236 3.99927 12.0364 4.53456 12.0364 5.00024C12.0364 5.48131 11.7141 6.04517 11.233 6.04517H8.24502C7.96404 6.04517 7.69601 5.92695 7.50655 5.71945L5.32109 3.32596C5.13162 3.11846 4.8636 3.00024 4.58262 3.00024H4.0272C3.47354 3.00024 3.02526 3.4501 3.02721 4.00376L3.05534 12.0067C3.05727 12.5576 3.50442 13.0032 4.05533 13.0032H12.0374C12.5896 13.0032 13.0374 12.5555 13.0374 12.0032V7.77748C13.0374 7.31248 13.5714 7.00024 14.0364 7.00024C14.5017 7.00024 15.0364 7.31238 15.0364 7.77774V14.0032C15.0364 14.5555 14.5887 15.0032 14.0364 15.0032H2.02564C1.47335 15.0032 1.02563 14.5555 1.02563 14.0032V2.00024C1.02563 1.44796 1.47335 1.00024 2.02563 1.00024H4.6089C4.87445 1.00024 5.1291 1.10587 5.31669 1.29383L7.72383 3.70568Z" fill="#4A4A4A"/>
<circle cx="14.0364" cy="5" r="1" fill="#4A4A4A"/>
</svg>
