<svg width="17" height="16" viewBox="0 0 17 16" fill="none" xmlns="http://www.w3.org/2000/svg">
<rect width="16" height="16" transform="translate(0.0236816)" fill="white"/>
<path d="M15.0237 10C15.0237 10.5523 14.576 11 14.0237 11H2.02368C1.4714 11 1.02368 10.5523 1.02368 10V3C1.02368 2.44772 1.4714 2 2.02368 2H14.0237C14.576 2 15.0237 2.44772 15.0237 3V10ZM4.02368 4C3.4714 4 3.02368 4.44772 3.02368 5V8C3.02368 8.55228 3.4714 9 4.02368 9H12.0188C12.5711 9 13.0188 8.55228 13.0188 8V5C13.0188 4.44772 12.5711 4 12.0188 4H4.02368Z" fill="#158AC1"/>
<path d="M12.024 13C12.5762 13.0002 13.024 13.4478 13.024 14C13.024 14.5522 12.5762 14.9998 12.024 15H4.02405C3.47176 15 3.02405 14.5523 3.02405 14C3.02405 13.4477 3.47176 13 4.02405 13H7.02405V11H9.02405V13H12.024Z" fill="#4A4A4A"/>
</svg>
