<svg width="17" height="16" viewBox="0 0 17 16" fill="none" xmlns="http://www.w3.org/2000/svg">
<rect width="16" height="16" transform="translate(0.0236816)" fill="white"/>
<path d="M6.77494 2.75526C7.23369 3.21506 6.90803 4 6.25852 4C6.05355 4 5.85803 3.91376 5.71981 3.76239L5.32109 3.32571C5.13162 3.11821 4.8636 3 4.58262 3H3.52369C3.24786 3 3.02456 3.22417 3.02563 3.5L3.02758 3.99804C3.02758 3.99912 3.02671 4 3.02563 4C3.02455 4 3.02368 4.00087 3.02368 4.00195L3.02013 14.006C3.01993 14.5567 2.57351 15.0029 2.02288 15.0029C1.47212 15.0029 1.02563 14.5564 1.02563 14.0057V2C1.02563 1.44772 1.47335 1 2.02563 1H4.6088C4.87441 1 5.12911 1.10567 5.31671 1.2937L6.77494 2.75526Z" fill="#4A4A4A"/>
<path d="M10.0237 7.00098H15.0237V15.0039H10.0237V15H4.02368V5H10.0237V7.00098ZM11.0247 8.00391H10.0237V9.00195H11.0247V10.002H10.0237V11H11.0247V12H10.0237V14.001H14.0237V8.00098H11.0247V8.00391ZM5.02368 13H6.52466V12H5.02466V11H6.52466V10.002H5.02466V9.00195H6.52466V8.00391H5.02466V7.00391H6.52466V6H5.02368V13ZM7.52466 13H9.02368V12H7.52466V13ZM13.0237 12H12.0237V11H13.0237V12ZM7.52466 11H9.02368V10.002H7.52466V11ZM13.0237 10H12.0237V9H13.0237V10ZM7.52466 9.00195H9.02368V8.00391H7.52466V9.00195ZM7.52466 7.00391H9.02368V6H7.52466V7.00391Z" fill="#158AC1"/>
</svg>
