<svg width="17" height="16" viewBox="0 0 17 16" fill="none" xmlns="http://www.w3.org/2000/svg">
<rect width="16" height="16" transform="translate(0.0236816)" fill="white"/>
<path d="M8.01917 2.99945C8.02319 3.0028 8.02826 3.00464 8.03349 3.00464C8.05347 3.00464 8.06347 3.0289 8.04942 3.04309C7.79469 3.30045 7.56763 3.58511 7.37322 3.89251C7.20577 4.15728 6.8371 4.23442 6.60231 4.02703L5.74943 3.2737C5.56668 3.11228 5.33125 3.02319 5.08742 3.02319H4.08008C3.52779 3.02319 3.08008 3.47091 3.08008 4.02319V11.9763C3.08008 12.5286 3.52779 12.9763 4.08008 12.9763H12.1335C12.6541 12.9763 13.0762 12.5543 13.0762 12.0336V11.8887C13.0762 11.5611 13.298 11.275 13.5982 11.144C14.1977 10.8825 15.0273 11.2732 15.0273 11.9272V14.0134C15.0273 14.5657 14.5796 15.0134 14.0273 15.0134H2.02344C1.47115 15.0134 1.02344 14.5657 1.02344 14.0134V2.00171C1.02344 1.44942 1.47115 1.00171 2.02344 1.00171H5.26259C5.49674 1.00171 5.72348 1.08388 5.90326 1.2339L8.01917 2.99945Z" fill="#4A4A4A"/>
<path d="M10.6602 4.4834C10.7907 4.46199 10.9241 4.44827 11.0605 4.44824C11.2641 4.44824 11.4616 4.47478 11.6514 4.52148L12.3965 3.15625L13.8721 4.00781L13.0723 5.47266C13.2038 5.64883 13.3162 5.84126 13.4014 6.04883L15.0098 6.03223L15.0273 7.7793L13.5 7.7959C13.4109 8.11555 13.2648 8.40905 13.0732 8.66602L13.1045 8.64844L13.9229 10.1709L12.4395 11.0273L11.6777 9.61133C11.4799 9.66237 11.2737 9.69336 11.0605 9.69336C10.881 9.69332 10.7061 9.67236 10.5371 9.63574L9.78027 11.0273L8.30469 10.1748L9.09277 8.72754C8.89484 8.4773 8.74161 8.1886 8.64355 7.87402H7.02734V6.12598H8.69336C8.80482 5.82853 8.96653 5.55782 9.16895 5.32422L8.36426 3.82812L9.84766 2.97168L10.6602 4.4834ZM11.0605 5.75977C10.3592 5.76 9.79104 6.34647 9.79102 7.07031C9.7912 7.79401 10.3593 8.38062 11.0605 8.38086C11.7619 8.38086 12.3309 7.79416 12.3311 7.07031C12.331 6.34632 11.762 5.75977 11.0605 5.75977Z" fill="#158AC1"/>
</svg>
