<svg width="17" height="16" viewBox="0 0 17 16" fill="none" xmlns="http://www.w3.org/2000/svg">
<rect width="16" height="16" transform="translate(0.0236816)" fill="white"/>
<path d="M7.74761 2.77221C7.9274 2.92222 8.15413 3.00439 8.38829 3.00439H14.0298C14.581 3.00439 15.0278 3.45124 15.0278 4.00244C15.0278 4.55365 14.581 5.00049 14.0298 5.00049H9.03955C9.03092 5.00049 9.02393 5.00748 9.02393 5.01611C9.02393 5.02474 9.01693 5.03174 9.0083 5.03174H8.09235C7.86515 5.03174 7.64577 4.94871 7.47551 4.79826L5.74995 3.27357C5.56718 3.11208 5.3317 3.02295 5.08781 3.02295H4.08057C3.52828 3.02295 3.08057 3.47066 3.08057 4.02295V11.9761C3.08057 12.5284 3.52828 12.9761 4.08057 12.9761H12.5967C12.8618 12.9761 13.0767 12.7612 13.0767 12.4961C13.0767 12.231 13.2916 12.0161 13.5566 12.0161H14.0522C14.591 12.0161 15.0278 12.4529 15.0278 12.9917V14.0132C15.0278 14.5655 14.5801 15.0132 14.0278 15.0132H2.02393C1.47164 15.0132 1.02393 14.5655 1.02393 14.0132V2.00146C1.02393 1.44918 1.47164 1.00146 2.02393 1.00146H5.26308C5.49723 1.00146 5.72396 1.08364 5.90375 1.23365L7.74761 2.77221Z" fill="#4A4A4A"/>
<path d="M10.0195 8.58553V6.19513C10.0195 6.05997 10.1423 5.99438 10.3536 5.99438L11.7971 5.9987C12.0084 5.9987 12.0237 6.07248 12.0237 6.20764V8.71875C12.0237 8.71875 12.0237 9 12.531 8.9886C13.0237 9 13.0237 8.71875 13.0237 8.71875V6.21417C13.0237 6.07902 13.0669 6.00523 13.2783 6.00523L14.7103 5.99504C14.9217 5.99504 15.0273 6.06262 15.0273 6.19778V8.58752C15.0273 9.44761 14.8029 10.1335 14.3561 10.48C13.9092 10.8241 13.3009 10.9961 12.531 10.9961C11.7611 10.9961 11.1527 10.8241 10.7059 10.48C10.259 10.1335 10.0195 9.44562 10.0195 8.58553Z" fill="#158AC1"/>
<path d="M4.03491 8.29698C4.03491 7.47037 4.25408 6.81386 4.69243 6.32748C5.13077 5.84109 5.75628 5.5979 6.56894 5.5979C7.3816 5.5979 8.0071 5.84109 8.44544 6.32748C8.88379 6.81386 9.02459 7.49528 9.02459 8.29698C9.02459 9.09869 8.88379 9.7801 8.44544 10.2665C8.0071 10.7529 7.3816 10.9961 6.56894 10.9961C5.75628 10.9961 5.13077 10.7529 4.69243 10.2665C4.25408 9.7801 4.03491 9.1236 4.03491 8.29698ZM5.73014 8.29698C5.73246 8.85606 5.97414 9.45363 6.5678 9.45657C7.1636 9.45952 7.41221 8.8206 7.41536 8.29698C7.41853 7.77089 7.16692 7.13436 6.5711 7.13534C5.97599 7.13632 5.72779 7.73296 5.73014 8.29698Z" fill="#158AC1"/>
</svg>
