<svg width="17" height="16" viewBox="0 0 17 16" fill="none" xmlns="http://www.w3.org/2000/svg">
<rect width="16" height="16" transform="translate(0.0236816)" fill="white"/>
<path d="M4.95654 2.08496C4.95654 2.603 4.53659 3.02295 4.01855 3.02295C3.50052 3.02295 3.08057 3.4429 3.08057 3.96094V12.0381C3.08057 12.5561 3.50052 12.9761 4.01855 12.9761H4.95459C4.95567 12.9761 4.95654 12.9769 4.95654 12.978C4.95654 12.9791 4.95742 12.98 4.95849 12.98L8.02951 12.9851C8.58114 12.9861 9.02783 13.4407 9.02783 13.9923C9.02783 14.5446 8.58012 14.9995 8.02783 14.9995H2.02393C1.47164 14.9995 1.02393 14.5518 1.02393 13.9995V2.00147C1.02393 1.44918 1.47164 1.00146 2.02393 1.00146H3.95654C4.50883 1.00146 4.95654 1.44918 4.95654 2.00146V2.08496ZM14.0298 12.9956C14.5813 12.9967 15.0278 13.446 15.0278 13.9976C15.0278 14.5498 14.5801 14.9995 14.0278 14.9995C13.4755 14.9995 13.0278 14.5498 13.0278 13.9976C13.0278 13.4445 13.4767 12.9945 14.0298 12.9956Z" fill="#4A4A4A"/>
<path d="M12.0236 4.00024C12.0245 4.01725 12.0557 4.53283 12.5148 4.52271C12.9604 4.53275 13.0216 4.01792 13.0236 4.00024V1.25317H15.0275V4.00024C15.0274 4.79189 14.8206 5.23694 14.4093 5.55591C13.9978 5.87238 13.2233 6.0002 12.5148 6.00024C11.8062 6.00024 11.2211 5.96523 10.8097 5.64868C10.3983 5.32971 10.0237 4.79192 10.0236 4.00024V1.25317H12.0236V4.00024ZM7.52063 1.00024C8.26861 1.00033 8.84465 1.22444 9.24817 1.67212C9.65163 2.11989 9.78134 2.74763 9.78137 3.4856C9.78132 4.22345 9.65154 4.85134 9.24817 5.29907C8.84466 5.74658 8.26847 5.97086 7.52063 5.97095C6.77257 5.9709 6.19567 5.74678 5.79211 5.29907C5.38876 4.85135 5.18672 4.24633 5.18665 3.4856C5.1867 2.72484 5.38878 2.11986 5.79211 1.67212C6.19567 1.22436 6.77252 1.00029 7.52063 1.00024ZM7.52258 2.83618C7.19115 2.82512 6.99681 3.1547 6.97375 3.4856C6.94888 3.84698 7.16062 4.24621 7.52258 4.23462C7.87621 4.22283 8.05722 3.83875 8.03333 3.4856C8.0113 3.16375 7.84488 2.84732 7.52258 2.83618Z" fill="#4A4A4A"/>
<path d="M11.0278 6.99609C11.5801 6.99609 12.0278 7.44381 12.0278 7.99609V9.99609H14.0278C14.5801 9.99609 15.0278 10.4438 15.0278 10.9961C15.0278 11.5484 14.5801 11.9961 14.0278 11.9961H12.0278V13.9961C12.0278 14.5484 11.5801 14.9961 11.0278 14.9961C10.4755 14.9961 10.0278 14.5484 10.0278 13.9961V11.9961H8.02783C7.47555 11.9961 7.02783 11.5484 7.02783 10.9961C7.02783 10.4438 7.47555 9.99609 8.02783 9.99609H10.0278V7.99609C10.0278 7.44381 10.4755 6.99609 11.0278 6.99609Z" fill="#158AC1"/>
</svg>
