<svg width="17" height="16" viewBox="0 0 17 16" fill="none" xmlns="http://www.w3.org/2000/svg">
<rect width="16" height="16" transform="translate(0.0236816)" fill="white"/>
<path d="M7.78538 2.80437C7.94045 2.93376 8.13601 3.00464 8.33798 3.00464H12.1096C12.3814 3.00464 12.6618 3.73864 12.5752 3.99625C12.5386 4.10512 12.4406 4.19103 12.3257 4.19086L8.11719 4.18433C8.00074 4.18413 7.88668 4.19401 7.77577 4.21308C7.34819 4.2866 6.87632 4.269 6.55114 3.98178L5.74943 3.27368C5.56668 3.11227 5.33126 3.02319 5.08743 3.02319H4.08008C3.52779 3.02319 3.08008 3.47091 3.08008 4.02319V11.9763C3.08008 12.5286 3.52779 12.9763 4.08008 12.9763H5.11426C5.66654 12.9763 6.11426 13.424 6.11426 13.9763V13.9871C6.11426 14.4617 5.79566 15.0134 5.32103 15.0134H2.02344C1.47115 15.0134 1.02344 14.5657 1.02344 14.0134V2.00171C1.02344 1.44942 1.47115 1.00171 2.02344 1.00171H5.26259C5.49674 1.00171 5.72348 1.08388 5.90326 1.2339L7.78538 2.80437ZM15.0273 3.11567C15.0273 3.16783 14.9677 3.1986 14.9238 3.17041C14.8638 3.13186 14.8923 3.00464 14.9636 3.00464C14.9987 3.00464 15.0273 3.03302 15.0273 3.06804V3.11567Z" fill="#4A4A4A"/>
<path d="M11.0242 11.9998H14.0242V14.9998H13.0242V12.9998H11.0242V14.9998H10.0242V12.9998H8.02417V14.9998H7.02417V11.9998H10.0242V10.9998H11.0242V11.9998Z" fill="#158AC1"/>
<path d="M15.0212 4.99512H6.02124V2.99512H15.0212V4.99512Z" fill="#158AC1"/>
<path d="M15.0212 8H6.02124V6H15.0212V8Z" fill="#158AC1"/>
<path d="M15.0212 11H6.02124V9H15.0212V11Z" fill="#158AC1"/>
</svg>
