<svg width="17" height="16" viewBox="0 0 17 16" fill="none" xmlns="http://www.w3.org/2000/svg">
<rect width="16" height="16" transform="translate(0.0236816)" fill="white"/>
<path d="M8.0128 3.99595C8.01539 3.99854 8.01891 4 8.02257 4C8.0302 4 8.03637 4.0062 8.0364 4.01383C8.03815 4.53002 8.13803 5.02298 8.318 5.47544C8.42156 5.73582 8.24344 6.04492 7.96322 6.04492C7.86176 6.04492 7.76498 6.00224 7.69657 5.92731L5.32109 3.32571C5.13162 3.11821 4.8636 3 4.58262 3H4.0272C3.47354 3 3.02526 3.44986 3.02721 4.00351L3.05534 12.0064C3.05727 12.5574 3.50442 13.0029 4.05533 13.0029H13.0359C13.0367 13.0029 13.0374 13.0023 13.0374 13.0015C13.0374 13.0007 13.038 13 13.0388 13H14.0369C14.5889 13 15.0364 13.4492 15.0364 14.0012C15.0364 14.5535 14.5887 15.0029 14.0364 15.0029H2.02564C1.47335 15.0029 1.02563 14.5552 1.02563 14.0029V2C1.02563 1.44772 1.47335 1 2.02563 1H4.6088C4.87441 1 5.12911 1.10567 5.31671 1.2937L8.0128 3.99595Z" fill="#4A4A4A"/>
<path d="M13.0364 8C14.1409 8.00009 15.0363 8.89548 15.0364 10C15.0364 11.1045 14.1409 11.9999 13.0364 12H6.02368C4.91911 12 4.02368 11.1046 4.02368 10C4.02371 8.89544 4.91913 8.00003 6.02368 8H13.0364ZM6.09985 9.10254C5.58871 9.10276 5.16986 9.50769 5.15259 10.0186C5.13468 10.5543 5.56384 10.9988 6.09985 10.999H12.8967C13.4081 10.9989 13.8269 10.5931 13.844 10.082C13.8618 9.54629 13.4328 9.10265 12.8967 9.10254H6.09985ZM12.0237 9.5C12.2998 9.5 12.5237 9.72386 12.5237 10C12.5237 10.2761 12.2998 10.5 12.0237 10.5C11.7475 10.5 11.5237 10.2761 11.5237 10C11.5237 9.72386 11.7475 9.5 12.0237 9.5Z" fill="#158AC1"/>
<path d="M9.03638 4.00195C9.52711 4.48452 10.2764 4.79305 11.094 4.92871C11.2236 5.76768 11.5405 6.52774 12.0461 6.99902H12.0754C12.0624 6.99919 12.0494 7 12.0364 7C10.3802 7 9.03743 5.65791 9.03638 4.00195ZM15.0364 4C15.0364 5.34877 14.146 6.48856 12.9211 6.86621C12.4733 6.36551 12.1855 5.71444 12.0549 5.00879C13.1578 5.01104 14.252 4.71367 14.9104 4.11328L15.0364 3.99023C15.0364 3.99349 15.0364 3.99674 15.0364 4ZM12.9348 1.13672C13.8736 1.43101 14.6136 2.1745 14.9036 3.11523C14.1555 3.78281 13.0717 4.09389 11.9729 4.05957C11.982 3.01683 12.3055 1.95039 12.9348 1.13672ZM12.0442 1C11.3846 1.66047 11.0451 2.80101 11.0276 3.94336C10.352 3.79771 9.7066 3.51921 9.17017 3.10742C9.55004 1.88628 10.6902 1 12.0364 1C12.039 1 12.0416 0.999993 12.0442 1Z" fill="#158AC1"/>
</svg>
